<svg id="Camada_1" data-name="Camada 1" xmlns="http://www.w3.org/2000/svg" viewBox="0 0 187.64 267.64"><defs><style>.cls-1{fill:#ad7d26;}.cls-2{fill:#ed6d1e;}.cls-3{fill:#ed6d1d;}.cls-4{fill:#da9820;}.cls-5{fill:#eaad13;}.cls-6{fill:#fcfbfd;}.cls-7{fill:#ed6d1f;}.cls-8{fill:#fff;}</style></defs><rect class="cls-1" x="38.68" y="167.71" width="23.01" height="44.69" rx="11.51"/><rect class="cls-1" x="65.37" y="206.83" width="23.01" height="44.69" rx="11.51"/><rect class="cls-1" x="96.76" y="206.83" width="23.01" height="44.69" rx="11.51"/><rect class="cls-1" x="124.61" y="167.71" width="23.01" height="44.69" rx="11.51"/><polygon class="cls-2" points="129.42 158.67 129.42 172.01 164.69 172.01 129.42 158.67"/><polygon class="cls-3" points="57.55 158.67 57.55 172.01 22.28 172.01 57.55 158.67"/><rect class="cls-4" x="127.61" y="11.23" width="5.28" height="71.29" rx="2.64"/><rect class="cls-4" x="56.88" y="167.71" width="72.54" height="61.46" rx="12"/><circle class="cls-5" cx="93.15" cy="124.33" r="59.28"/><path class="cls-2" d="M77.64,140.7c-11.38,0-23-7.88-23.28-22.94v-.15c.25-15.06,11.9-22.94,23.28-22.94a24,24,0,0,1,15.51,5.53,24,24,0,0,1,15.51-5.53c11.37,0,23,7.88,23.28,22.94v.15c-.25,15.06-11.9,22.94-23.28,22.94h0a23.93,23.93,0,0,1-15.51-5.54A23.93,23.93,0,0,1,77.64,140.7Z"/><path class="cls-6" d="M93.15,106.54C83.87,93.6,59,97.32,58.69,117.68c.35,20.37,25.18,24.08,34.46,11.14,9.28,12.94,34.11,9.23,34.46-11.14C127.26,97.31,102.43,93.6,93.15,106.54Z"/><circle class="cls-7" cx="76.87" cy="117.43" r="9.17"/><circle class="cls-7" cx="109.26" cy="117.43" r="9.17"/><path class="cls-8" d="M58.69,148.48c0,12.12,15.43,22,34.46,22s34.46-9.83,34.46-22"/><path d="M112.47,166.65V148.48h-2v19C111.15,167.2,111.82,166.93,112.47,166.65Z"/><rect x="92.15" y="148.48" width="2" height="21.95"/><path d="M76.87,168V148.48h-2v18.78C75.53,167.51,76.19,167.74,76.87,168Z"/><polygon class="cls-2" points="92.15 214.57 81.45 208.39 81.45 196.03 92.15 189.85 102.85 196.03 102.85 208.39 92.15 214.57"/></svg>