<svg width="128" height="183" viewBox="0 0 128 183" fill="none" xmlns="http://www.w3.org/2000/svg">
<path d="M94.3014 18.352C94.3014 17.3551 93.4951 16.5469 92.5005 16.5469C91.5059 16.5469 90.6996 17.3551 90.6996 18.352V63.4866C90.6996 64.4835 91.5059 65.2917 92.5005 65.2917C93.4951 65.2917 94.3014 64.4835 94.3014 63.4866V18.352Z" fill="#DA9820"/>
<path d="M67.1925 134.412C89.5259 134.412 107.631 116.265 107.631 93.8795C107.631 71.4937 89.5259 53.3465 67.1925 53.3465C44.859 53.3465 26.7542 71.4937 26.7542 93.8795C26.7542 116.265 44.859 134.412 67.1925 134.412Z" fill="#EAAD13"/>
<path d="M90.7269 119.93C90.7269 111.643 80.2081 104.888 67.2198 104.888C54.2315 104.888 43.6581 111.643 43.6581 119.93" fill="white"/>
<path d="M54.0132 107.5V119.93H55.3775V106.939C54.9137 107.131 54.4566 107.308 54.0132 107.5Z" fill="black"/>
<path d="M66.5172 119.93H67.8815V104.922H66.5172V119.93Z" fill="black"/>
<path d="M78.298 106.604V119.93H79.6623V107.09C79.2189 106.919 78.7619 106.761 78.298 106.604Z" fill="black"/>
<path d="M68.8979 94.0504C68.434 93.5512 75.2078 81.2573 85.4266 81.6266C94.1036 81.9342 99.9224 91.1991 99.4108 91.8213C98.8992 92.4435 93.1827 85.3393 84.7921 85.4487C75.4807 85.5718 69.3276 94.4948 68.8979 94.0504Z" fill="#ED6D1F"/>
<path d="M72.9908 89.312C72.6498 89.0385 77.6159 82.2556 85.1128 82.4744C91.4841 82.6454 95.7476 87.753 95.3451 88.1017C94.9427 88.4504 90.7747 84.5257 84.6148 84.5872C77.7659 84.6351 73.2842 89.5718 72.9908 89.312Z" fill="white"/>
<path d="M66.8514 94.0504C67.3085 93.5512 60.5415 81.2573 50.3159 81.6266C41.6389 81.9342 35.8201 91.1991 36.3317 91.8213C36.8433 92.4435 42.5598 85.3393 50.9571 85.4487C60.2754 85.5718 66.4285 94.4948 66.8514 94.0504Z" fill="#ED6D1F"/>
<path d="M62.7585 89.312C63.0927 89.0385 58.1266 82.2556 50.6297 82.4744C44.2584 82.6454 39.9949 87.753 40.3974 88.1017C40.7998 88.4504 44.9678 84.5257 51.1209 84.5872C57.9834 84.6351 62.4652 89.5718 62.7585 89.312Z" fill="white"/>
</svg>
