<svg id="Camada_1" data-name="Camada 1" xmlns="http://www.w3.org/2000/svg" xmlns:xlink="http://www.w3.org/1999/xlink" viewBox="0 0 26.84 45.06"><defs><style>.cls-1{fill:none;}.cls-2{clip-path:url(#clip-path);}.cls-3{fill:#8b8b8c;}.cls-4{fill:#324597;}.cls-5{fill:#dcdc15;}</style><clipPath id="clip-path" transform="translate(-13.42 -21.58)"><rect class="cls-1" x="-0.16" y="18.08" width="54" height="54"/></clipPath></defs><g id="Camada_2" data-name="Camada 2"><g id="Camada_1-2" data-name="Camada 1-2"><g class="cls-2"><g class="cls-2"><path class="cls-3" d="M33.52,21.58H20.16a.6.6,0,0,0-.6.6h0v2.4a.6.6,0,0,0,.6.6H33.52a.61.61,0,0,0,.6-.6v-2.4a.6.6,0,0,0-.6-.6" transform="translate(-13.42 -21.58)"/><path class="cls-3" d="M35.48,24.58H18.2a4.79,4.79,0,0,0-4.78,4.78V61.85a4.79,4.79,0,0,0,4.78,4.78H35.48a4.79,4.79,0,0,0,4.78-4.78V29.35a4.78,4.78,0,0,0-4.78-4.77" transform="translate(-13.42 -21.58)"/><path class="cls-4" d="M34.92,26.66H18.76a3.42,3.42,0,0,0-3.42,3.42v31a3.42,3.42,0,0,0,3.42,3.42H34.92a3.42,3.42,0,0,0,3.42-3.42v-31a3.42,3.42,0,0,0-3.42-3.42" transform="translate(-13.42 -21.58)"/><polygon class="cls-5" points="21.9 21.15 14.4 21.15 17.36 8.8 4.94 26.94 12.44 26.94 9.48 39.29 21.9 21.15"/></g></g></g></g></svg>